<svg width="891" height="972" viewBox="0 0 891 972" fill="none" xmlns="http://www.w3.org/2000/svg">
<path d="M447.418 161.849C492.325 161.849 528.729 125.618 528.729 80.9246C528.729 36.2312 492.325 0 447.418 0C402.512 0 366.108 36.2312 366.108 80.9246C366.108 125.618 402.512 161.849 447.418 161.849Z" fill="white"/>
<path fill-rule="evenodd" clip-rule="evenodd" d="M40.8139 276.095C14.7291 264.482 -2.35315 237.363 0.263996 207.431C0.263996 207.431 0.263851 207.425 0.270038 207.425C0.387593 206.052 1.04983 204.777 2.11401 203.89C3.17819 203.004 4.54519 202.573 5.93109 202.689L358.002 233.213H532.998L885.074 202.689C886.454 202.573 887.828 203.004 888.886 203.89C889.95 204.777 890.612 206.052 890.736 207.425V207.431C893.21 235.713 878.095 261.483 854.417 274.033V294.452C854.417 304.162 846.504 312.032 836.747 312.032H752.986C750.35 312.032 747.826 313.079 745.964 314.932C744.095 316.785 743.049 319.304 743.049 321.927C743.049 347.894 743.049 417.803 743.049 443.77C743.049 446.393 744.095 448.911 745.964 450.765C747.826 452.618 750.35 453.659 752.986 453.659C779.374 453.659 849.189 453.659 849.189 453.659C852.078 453.659 854.417 455.993 854.417 458.862C854.417 458.868 854.417 458.868 854.417 458.868C854.417 496.806 823.519 527.551 785.406 527.551H751.359C749.156 527.551 747.04 528.426 745.481 529.977C743.928 531.523 743.049 533.629 743.049 535.821C743.049 587.73 743.049 866.502 743.049 866.502C769.276 879.926 787.238 907.143 787.238 938.504C787.238 983.166 624.616 983.166 624.616 938.504C624.616 907.143 642.577 879.926 668.804 866.502V537.447C668.804 531.985 664.356 527.551 658.868 527.551C600.74 527.551 305.319 527.551 247.191 527.551C241.703 527.551 237.254 531.985 237.254 537.447C237.254 593.235 237.254 866.126 237.254 866.126C263.883 879.427 282.173 906.853 282.173 938.504C282.173 983.166 119.557 983.166 119.557 938.504C119.557 907.438 137.178 880.443 163.009 866.877V535.821C163.009 533.629 162.137 531.523 160.578 529.977C159.019 528.426 156.909 527.551 154.706 527.551C139.746 527.551 109.825 527.551 109.825 527.551C71.7126 527.551 40.8139 496.806 40.8139 458.868C40.8139 458.868 40.8139 458.868 40.8139 458.862C40.8139 455.993 43.1529 453.659 46.0422 453.659C46.0422 453.659 124.816 453.659 153.073 453.659C155.709 453.659 158.239 452.618 160.101 450.765C161.964 448.911 163.009 446.393 163.009 443.77C163.009 417.803 163.009 347.894 163.009 321.927C163.009 319.304 161.964 316.785 160.101 314.932C158.239 313.079 155.709 312.032 153.073 312.032C126.976 312.032 58.4844 312.032 58.4844 312.032C48.7273 312.032 40.8139 304.162 40.8139 294.452V276.095ZM484.738 443.77C484.738 446.393 485.784 448.911 487.652 450.765C489.515 452.618 492.039 453.659 494.675 453.659C526.68 453.659 626.862 453.659 658.868 453.659C661.504 453.659 664.034 452.618 665.896 450.765C667.759 448.911 668.804 446.393 668.804 443.77V321.927C668.804 319.304 667.759 316.785 665.896 314.932C664.034 313.079 661.504 312.032 658.868 312.032C626.862 312.032 526.68 312.032 494.675 312.032C492.039 312.032 489.515 313.079 487.652 314.932C485.784 316.785 484.738 319.304 484.738 321.927V443.77ZM237.254 443.77C237.254 446.393 238.3 448.911 240.168 450.765C242.031 452.618 244.555 453.659 247.191 453.659C277.737 453.659 370.011 453.659 400.557 453.659C403.192 453.659 405.723 452.618 407.585 450.765C409.447 448.911 410.493 446.393 410.493 443.77C410.493 417.803 410.493 347.894 410.493 321.927C410.493 319.304 409.447 316.785 407.585 314.932C405.723 313.079 403.192 312.032 400.557 312.032C370.011 312.032 277.737 312.032 247.191 312.032C244.555 312.032 242.031 313.079 240.168 314.932C238.3 316.785 237.254 319.304 237.254 321.927C237.254 347.894 237.254 417.803 237.254 443.77Z" fill="white"/>
</svg>
