<svg width="1485" height="1620" viewBox="0 0 1485 1620" fill="none" xmlns="http://www.w3.org/2000/svg">
<path d="M745.697 269.748C820.541 269.748 881.215 209.363 881.215 134.874C881.215 60.3853 820.541 0 745.697 0C670.852 0 610.179 60.3853 610.179 134.874C610.179 209.363 670.852 269.748 745.697 269.748Z" fill="white"/>
<path fill-rule="evenodd" clip-rule="evenodd" d="M68.0232 460.159C24.5486 440.803 -3.92191 395.606 0.439993 345.718C0.439993 345.718 0.439752 345.708 0.450063 345.708C0.645988 343.419 1.74971 341.295 3.52334 339.817C5.29698 338.339 7.57531 337.621 9.88516 337.816L596.67 388.689H888.33L1475.12 337.816C1477.42 337.621 1479.71 338.339 1481.48 339.817C1483.25 341.295 1484.35 343.419 1484.56 345.708V345.718C1488.68 392.855 1463.49 435.805 1424.03 456.721V490.753C1424.03 506.937 1410.84 520.053 1394.58 520.053H1254.98C1250.58 520.053 1246.38 521.798 1243.27 524.887C1240.16 527.976 1238.42 532.173 1238.42 536.545C1238.42 579.824 1238.42 696.338 1238.42 739.616C1238.42 743.988 1240.16 748.185 1243.27 751.274C1246.38 754.363 1250.58 756.098 1254.98 756.098C1298.96 756.098 1415.32 756.098 1415.32 756.098C1420.13 756.098 1424.03 759.988 1424.03 764.77C1424.03 764.78 1424.03 764.78 1424.03 764.78C1424.03 828.01 1372.53 879.252 1309.01 879.252H1252.26C1248.59 879.252 1245.07 880.709 1242.47 883.296C1239.88 885.872 1238.42 889.382 1238.42 893.035C1238.42 979.551 1238.42 1444.17 1238.42 1444.17C1282.13 1466.54 1312.06 1511.9 1312.06 1564.17C1312.06 1638.61 1041.03 1638.61 1041.03 1564.17C1041.03 1511.9 1070.96 1466.54 1114.67 1444.17V895.745C1114.67 886.641 1107.26 879.252 1098.11 879.252C1001.23 879.252 508.864 879.252 411.985 879.252C402.838 879.252 395.424 886.641 395.424 895.745C395.424 988.726 395.424 1443.54 395.424 1443.54C439.806 1465.71 470.288 1511.42 470.288 1564.17C470.288 1638.61 199.262 1638.61 199.262 1564.17C199.262 1512.4 228.63 1467.4 271.682 1444.8V893.035C271.682 889.382 270.228 885.872 267.63 883.296C265.031 880.709 261.515 879.252 257.844 879.252C232.91 879.252 183.042 879.252 183.042 879.252C119.521 879.252 68.0232 828.01 68.0232 764.78C68.0232 764.78 68.0232 764.78 68.0232 764.77C68.0232 759.988 71.9214 756.098 76.7371 756.098C76.7371 756.098 208.027 756.098 255.121 756.098C259.514 756.098 263.732 754.363 266.836 751.274C269.939 748.185 271.682 743.988 271.682 739.616C271.682 696.338 271.682 579.824 271.682 536.545C271.682 532.173 269.939 527.976 266.836 524.887C263.732 521.798 259.514 520.053 255.121 520.053C211.626 520.053 97.474 520.053 97.474 520.053C81.2122 520.053 68.0232 506.937 68.0232 490.753V460.159ZM807.897 739.616C807.897 743.988 809.64 748.185 812.754 751.274C815.858 754.363 820.065 756.098 824.458 756.098C877.801 756.098 1044.77 756.098 1098.11 756.098C1102.51 756.098 1106.72 754.363 1109.83 751.274C1112.93 748.185 1114.67 743.988 1114.67 739.616V536.545C1114.67 532.173 1112.93 527.976 1109.83 524.887C1106.72 521.798 1102.51 520.053 1098.11 520.053C1044.77 520.053 877.801 520.053 824.458 520.053C820.065 520.053 815.858 521.798 812.754 524.887C809.64 527.976 807.897 532.173 807.897 536.545V739.616ZM395.424 739.616C395.424 743.988 397.166 748.185 400.281 751.274C403.384 754.363 407.592 756.098 411.985 756.098C462.894 756.098 616.685 756.098 667.594 756.098C671.987 756.098 676.205 754.363 679.309 751.274C682.412 748.185 684.155 743.988 684.155 739.616C684.155 696.338 684.155 579.824 684.155 536.545C684.155 532.173 682.412 527.976 679.309 524.887C676.205 521.798 671.987 520.053 667.594 520.053C616.685 520.053 462.894 520.053 411.985 520.053C407.592 520.053 403.384 521.798 400.281 524.887C397.166 527.976 395.424 532.173 395.424 536.545C395.424 579.824 395.424 696.338 395.424 739.616Z" fill="white"/>
</svg>
